Coordinates
version=1
nRows=16
nColumns=42
inDegrees=yes

Units are S.I. units (second, meters, Newtons, ...)
If the header above contains a line with 'inDegrees', this indicates whether rotational values are in degrees (yes) or radians (no).

endheader
time	pelvis_tilt	pelvis_list	pelvis_rotation	pelvis_tx	pelvis_ty	pelvis_tz	hip_flexion_r	hip_adduction_r	hip_rotation_r	knee_angle_r	knee_adduction_r	knee_angle_r_beta	ankle_angle_r	subtalar_angle_r	mtp_angle_r	hip_flexion_l	hip_adduction_l	hip_rotation_l	knee_angle_l	knee_adduction_l	knee_angle_l_beta	ankle_angle_l	subtalar_angle_l	mtp_angle_l	lumbar_extension	lumbar_bending	lumbar_rotation	arm_flex_r	arm_add_r	arm_rot_r	elbow_flex_r	pro_sup_r	wrist_flex_r	wrist_dev_r	arm_flex_l	arm_add_l	arm_rot_l	elbow_flex_l	pro_sup_l	wrist_flex_l	wrist_dev_l
      0.90000000	     15.55332339	     -2.92633199	     -2.87552141	     -0.08201294	      0.97316645	     -0.10321320	    -28.05712368	      7.94008257	     -9.58447580	      5.10580707	     -2.32036707	      0.08911314	     16.32688838	     15.23154674	     -7.76330825	     10.18441617	     -3.59650885	     -5.41018143	     18.04285886	      0.98443552	      0.31490729	      1.50726296	      6.39562915	     -7.76330825	    -38.59968958	      3.61179026	     10.46337593	      5.97643095	    -23.32591606	     -0.23668542	     72.63396649	     90.00000001	      0.00000000	      0.00000000	     -7.27545148	    -13.91152984	     -2.70640697	     51.62117840	     90.00000001	      0.00000000	      0.00000000
      0.91000000	     15.42384979	     -3.17241969	     -3.46933143	     -0.06853258	      0.97029810	     -0.10250457	    -28.58036871	      7.86613526	     -9.57213786	      5.72203322	     -2.33849617	      0.09986832	     17.07892869	     15.42916427	     -7.75243784	     10.48504514	     -3.69341476	     -7.43900872	     15.48448373	      0.64156220	      0.27025522	      1.18692082	      8.50679663	     -7.75243784	    -38.54507085	      3.57364559	     10.84285126	      6.36944248	    -23.58703765	      0.26662075	     72.63174469	     90.00000001	      0.00000000	      0.00000000	     -7.85650416	    -13.60853202	     -3.13507919	     51.63701618	     90.00000001	      0.00000000	      0.00000000
      0.92000000	     15.14725854	     -3.55894433	     -4.04518938	     -0.05495814	      0.96714801	     -0.10176958	    -28.83734083	      7.94980305	     -9.90730116	      6.54419127	     -2.53208688	      0.11421768	     18.01885492	     16.52151191	     -7.73253421	     11.03552782	     -4.03803676	     -9.51176704	     13.60691540	      0.49848524	      0.23748547	      1.36669919	     10.91737944	     -7.73253421	    -38.32394790	      3.69620488	     11.32982870	      6.73111894	    -23.82772266	      0.66325979	     72.57964627	     90.00000001	      0.00000000	      0.00000000	     -8.43163739	    -13.27159236	     -3.37598648	     51.66094517	     90.00000001	      0.00000000	      0.00000000
      0.93000000	     14.77228742	     -3.97956022	     -4.61498954	     -0.04147516	      0.96406091	     -0.10099682	    -29.05401808	      8.09301368	     -9.71636225	      7.26868532	     -2.73396088	      0.12686249	     18.61287718	     16.75537699	     -7.72807611	     11.53941846	     -4.42919692	    -10.64306424	     11.90575036	      0.66904594	      0.20779454	      1.36054899	     11.37189779	     -7.72807611	    -38.03935456	      3.85378571	     11.84943690	      7.06380428	    -24.02149647	      0.97420271	     72.44786690	     90.00000001	      0.00000000	      0.00000000	     -8.90171190	    -12.98692357	     -3.47934546	     51.56307662	     90.00000001	      0.00000000	      0.00000000
      0.94000000	     14.55764606	     -4.04741043	     -5.25630327	     -0.02757032	      0.96124775	     -0.10047834	    -29.22820761	      7.65521687	    -10.53720983	      8.43028257	     -2.87035613	      0.14713619	     19.67757336	     18.41258660	     -7.71660079	     11.89421952	     -4.32766703	    -12.43823861	     10.73489000	      0.49075901	      0.18735918	      1.43157060	     12.53195133	     -7.71660079	    -37.85386272	      3.64373096	     12.14882966	      7.39655608	    -24.17080641	      1.39004106	     72.28305783	     90.00000001	      0.00000000	      0.00000000	     -9.37126704	    -12.66664567	     -3.85491448	     51.48264919	     90.00000001	      0.00000000	      0.00000000
      0.95000000	     14.15821214	     -4.38759378	     -5.81848412	     -0.01376519	      0.95839885	     -0.09965347	    -29.34028612	      7.63649379	    -10.51284123	      9.35291777	     -3.09718881	      0.16323921	     20.10814283	     19.00723117	     -7.71314839	     12.40012946	     -4.64312787	    -13.36391759	     10.06647299	      0.64622464	      0.17569310	      1.87937048	     12.54411621	     -7.71314839	    -37.51537839	      3.70624168	     12.61950438	      7.65603467	    -24.21909530	      1.55583908	     71.95255359	     90.00000001	      0.00000000	      0.00000000	     -9.73040746	    -12.48437927	     -3.84157112	     51.32752415	     90.00000001	      0.00000000	      0.00000000
      0.96000000	     13.79544663	     -4.60099014	     -6.38747544	      0.00021458	      0.95579740	     -0.09918743	    -29.43391397	      7.35699001	    -10.65205038	     10.37801769	     -3.20163966	      0.18113058	     20.49668504	     19.71505332	     -7.71028722	     12.89170964	     -4.70976842	    -14.31936028	      9.93119827	      0.52432977	      0.17333211	      2.19195417	     12.40004039	     -7.71028722	    -37.20420440	      3.70022758	     12.97912848	      7.93790835	    -24.26272868	      1.68464853	     71.64008513	     90.00000001	      0.00000000	      0.00000000	    -10.03661753	    -12.21615134	     -3.85705978	     51.11928241	     90.00000001	      0.00000000	      0.00000000
      0.97000000	     13.67928647	     -4.32645752	     -7.02363621	      0.01500285	      0.95342876	     -0.09868197	    -29.44991853	      6.38308256	    -12.58589492	     11.97314778	     -3.61353139	      0.20897085	     21.69074345	     23.78113054	     -7.69752436	     13.19955651	     -4.26067994	    -16.08892399	     10.47620065	      0.17581017	      0.18284419	      2.65796537	     13.68226621	     -7.69752436	    -36.97980231	      3.12059479	     13.06577258	      8.01439627	    -24.20958566	      1.93087585	     71.45098272	     90.00000001	      0.00000000	      0.00000000	    -10.40850517	    -12.09739216	     -4.03619384	     51.00736697	     90.00000001	      0.00000000	      0.00000000
      0.98000000	     13.34248916	     -4.36823970	     -7.53008269	      0.02950721	      0.95122993	     -0.09813212	    -29.50493976	      5.92271340	    -12.56759728	     13.10673244	     -3.76539073	      0.22875564	     21.62210022	     24.26540581	     -7.69405818	     13.67908837	     -4.17515092	    -16.57235327	     11.33086819	     -0.00911497	      0.19776096	      2.82360839	     13.08698130	     -7.69405818	    -36.60790214	      2.93177971	     13.27437607	      8.12795594	    -24.07546451	      1.92988283	     71.03991144	     90.00000001	      0.00000000	      0.00000000	    -10.56984321	    -11.98956908	     -3.91989055	     50.65318870	     90.00000001	      0.00000000	      0.00000000
      0.99000000	     13.06686401	     -4.34194909	     -8.00517533	      0.04432317	      0.94933998	     -0.09757463	    -29.54117694	      5.34187571	    -12.62637155	     14.41381231	     -3.85975247	      0.25156848	     21.41178630	     24.94112755	     -7.69098655	     14.10600827	     -4.00599686	    -16.94279996	     12.59667528	     -0.30785362	      0.21985346	      2.71563569	     12.37844748	     -7.69098655	    -36.24948040	      2.67331810	     13.39756174	      8.12166706	    -23.86309397	      1.92716326	     70.66024588	     90.00000001	      0.00000000	      0.00000000	    -10.68365976	    -11.92084393	     -3.83198001	     50.28559767	     90.00000001	      0.00000000	      0.00000000
      1.00000000	     12.95826014	     -4.06802197	     -8.49253507	      0.05946501	      0.94775325	     -0.09724419	    -29.54575185	      4.44101856	    -13.46174226	     15.96292011	     -4.26988198	      0.27860551	     21.35454183	     27.29989315	     -7.68085786	     14.34698561	     -3.51290905	    -17.15050137	     14.08137922	     -0.70195123	      0.24576643	      2.36581406	     11.67442738	     -7.68085786	    -36.00656289	      2.16583490	     13.40421604	      8.05872626	    -23.69474014	      1.80287722	     70.41080850	     90.00000001	      0.00000000	      0.00000000	    -10.78804650	    -11.94012026	     -3.65493532	     50.03046862	     90.00000001	      0.00000000	      0.00000000
      1.01000000	     12.77743994	     -3.95509733	     -8.84008863	      0.07454913	      0.94657511	     -0.09680313	    -29.57416566	      3.91090756	    -13.01913815	     17.35998241	     -4.49387336	      0.30298885	     20.57643353	     27.38005351	     -7.67935725	     14.54134546	     -3.16583936	    -16.53554450	     15.48884826	     -1.04617214	      0.27033140	      1.90425396	     11.37176614	     -7.67935725	    -35.73153744	      1.85400794	     13.35860547	      7.97810679	    -23.46652090	      1.75360290	     70.11275789	     90.00000001	      0.00000000	      0.00000000	    -10.77378699	    -11.94432526	     -3.58414900	     49.71986267	     90.00000001	      0.00000000	      0.00000000
      1.02000000	     12.73821341	     -3.69043734	     -9.14473896	      0.09006409	      0.94575466	     -0.09650572	    -29.55783367	      3.10815086	    -13.17526503	     19.10313711	     -4.65017257	      0.33341264	     19.07511296	     27.40601590	     -7.67639636	     14.85779207	     -2.72061013	    -16.78943020	     17.66430503	     -1.53722951	      0.30830028	      1.12619648	      9.98356339	     -7.67639636	    -35.49465749	      1.41434906	     13.18653492	      7.84489459	    -23.10962861	      1.54047961	     69.69207736	     90.00000001	      0.00000000	      0.00000000	    -10.65617897	    -12.01266631	     -3.35965403	     49.20403620	     90.00000001	      0.00000000	      0.00000000
      1.03000000	     12.80971251	     -3.40371920	     -9.39588239	      0.10561411	      0.94552246	     -0.09622510	    -29.54592061	      2.36550540	    -13.10051888	     20.94973297	     -4.91248998	      0.36564182	     17.38666787	     27.42938027	     -7.67314093	     14.85405968	     -2.19488909	    -16.34478010	     19.50444832	     -1.89823527	      0.34041684	      0.31707072	      8.60237570	     -7.67314093	    -35.40290615	      0.94544615	     12.95125460	      7.61775473	    -22.76125568	      1.25802467	     69.41218436	     90.00000001	      0.00000000	      0.00000000	    -10.49969215	    -12.15364631	     -3.07026233	     48.82370941	     90.00000001	      0.00000000	      0.00000000
      1.04000000	     12.99864019	     -3.17564146	     -9.56594762	      0.12112301	      0.94581137	     -0.09600143	    -29.52787292	      1.70006426	    -12.77798030	     23.04178063	     -5.06291837	      0.40215494	     15.63195613	     27.24221227	     -7.67199761	     14.61486958	     -1.74618840	    -15.59602684	     21.20949928	     -2.06477025	      0.37017560	     -0.13785035	      8.02460272	     -7.67199761	    -35.45257119	      0.55508598	     12.63586597	      7.46841628	    -22.45819391	      1.07755643	     69.13040204	     90.00000001	      0.00000000	      0.00000000	    -10.27009523	    -12.27214731	     -2.92162863	     48.48929909	     90.00000001	      0.00000000	      0.00000000
      1.05000000	     13.26914809	     -2.71941292	     -9.58048699	      0.13660466	      0.94679780	     -0.09599207	    -29.46534771	      0.96948561	    -12.14703107	     25.25687708	     -5.10624712	      0.44081566	     12.72791393	     24.74991405	     -7.65970995	     14.06352073	     -0.92715532	    -13.55133291	     22.45365056	     -1.69014906	      0.39189013	     -1.33769122	      3.71303017	     -7.65970995	    -35.56115390	     -0.00941608	     12.17295992	      7.16289809	    -22.00272638	      0.61956421	     68.88569649	     90.00000001	      0.00000000	      0.00000000	     -9.85210295	    -12.57116403	     -2.41109934	     48.11146721	     90.00000001	      0.00000000	      0.00000000
